<?xml version="1.0" encoding="UTF-8" standalone="no"?>
<!-- Created with Inkscape (http://www.inkscape.org/) -->

<svg
   xmlns:dc="http://purl.org/dc/elements/1.1/"
   xmlns:cc="http://creativecommons.org/ns#"
   xmlns:rdf="http://www.w3.org/1999/02/22-rdf-syntax-ns#"
   xmlns:svg="http://www.w3.org/2000/svg"
   xmlns="http://www.w3.org/2000/svg"
   xmlns:sodipodi="http://sodipodi.sourceforge.net/DTD/sodipodi-0.dtd"
   xmlns:inkscape="http://www.inkscape.org/namespaces/inkscape"
   width="64px"
   height="64px"
   id="svg2985"
   version="1.1"
   inkscape:version="0.48.4 r9939"
   sodipodi:docname="New document 2">
  <defs
     id="defs2987">
    <inkscape:path-effect
       effect="spiro"
       id="path-effect3191"
       is_visible="true" />
  </defs>
  <sodipodi:namedview
     id="base"
     pagecolor="#ffffff"
     bordercolor="#666666"
     borderopacity="1.0"
     inkscape:pageopacity="0.0"
     inkscape:pageshadow="2"
     inkscape:zoom="7.7781746"
     inkscape:cx="38.740194"
     inkscape:cy="35.67421"
     inkscape:current-layer="layer1"
     showgrid="true"
     inkscape:document-units="px"
     inkscape:grid-bbox="true"
     inkscape:window-width="1280"
     inkscape:window-height="751"
     inkscape:window-x="0"
     inkscape:window-y="23"
     inkscape:window-maximized="1"
     showguides="false"
     inkscape:snap-bbox="false"
     inkscape:bbox-paths="true"
     inkscape:snap-global="true">
    <inkscape:grid
       type="xygrid"
       id="grid3028" />
  </sodipodi:namedview>
  <metadata
     id="metadata2990">
    <rdf:RDF>
      <cc:Work
         rdf:about="">
        <dc:format>image/svg+xml</dc:format>
        <dc:type
           rdf:resource="http://purl.org/dc/dcmitype/StillImage" />
        <dc:title></dc:title>
      </cc:Work>
    </rdf:RDF>
  </metadata>
  <g
     id="layer1"
     inkscape:label="Layer 1"
     inkscape:groupmode="layer">
    <path
       sodipodi:type="arc"
       style="fill:#803300"
       id="path3085"
       sodipodi:cx="20.988214"
       sodipodi:cy="17.954288"
       sodipodi:rx="20.988214"
       sodipodi:ry="17.954288"
       d="m 41.976429,17.954288 a 20.988214,17.954288 0 1 1 -41.976429,0 20.988214,17.954288 0 1 1 41.976429,0 z"
       transform="matrix(1.5246652,0,0,1.503819,-0.02851945,10.064282)" />
    <path
       transform="translate(-10,-5)"
       sodipodi:type="arc"
       style="fill:#803300"
       id="path3091"
       sodipodi:cx="20"
       sodipodi:cy="19"
       sodipodi:rx="10"
       sodipodi:ry="10"
       d="m 30,19 a 10,10 0 1 1 -20,0 10,10 0 1 1 20,0 z" />
    <path
       transform="translate(35,-5)"
       sodipodi:type="arc"
       style="fill:#803300"
       id="path3091-6"
       sodipodi:cx="20"
       sodipodi:cy="19"
       sodipodi:rx="10"
       sodipodi:ry="10"
       d="m 30,19 a 10,10 0 1 1 -20,0 10,10 0 1 1 20,0 z" />
    <path
       sodipodi:type="arc"
       style="fill:#c87137"
       id="path3131"
       sodipodi:cx="32.5"
       sodipodi:cy="51.5"
       sodipodi:rx="12.5"
       sodipodi:ry="7.5"
       d="m 45,51.5 a 12.5,7.5 0 1 1 -25,0 12.5,7.5 0 1 1 25,0 z" />
    <path
       sodipodi:type="arc"
       style="fill:#241c1c"
       id="path3136"
       sodipodi:cx="32.5"
       sodipodi:cy="46.5"
       sodipodi:rx="2.5"
       sodipodi:ry="2.5"
       d="m 35,46.5 a 2.5,2.5 0 1 1 -5,0 2.5,2.5 0 1 1 5,0 z" />
    <path
       sodipodi:type="arc"
       style="fill:#c87137"
       id="path3159"
       sodipodi:cx="55"
       sodipodi:cy="14"
       sodipodi:rx="5"
       sodipodi:ry="5"
       d="m 60,14 a 5,5 0 1 1 -10,0 5,5 0 1 1 10,0 z" />
    <path
       sodipodi:type="arc"
       style="fill:#c87137"
       id="path3161"
       sodipodi:cx="10"
       sodipodi:cy="14"
       sodipodi:rx="5"
       sodipodi:ry="5"
       d="M 15,14 A 5,5 0 1 1 5,14 5,5 0 1 1 15,14 z" />
    <rect
       style="fill:#241c1c"
       id="rect3260"
       width="35"
       height="3.9714808"
       x="15"
       y="22.599815" />
    <path
       sodipodi:type="arc"
       style="fill:#241c1c"
       id="path3290"
       sodipodi:cx="22.5"
       sodipodi:cy="26.5"
       sodipodi:rx="7.5"
       sodipodi:ry="7.5"
       d="m 30,26.5 a 7.5,7.5 0 1 1 -15,0 l 7.5,0 z"
       sodipodi:start="0"
       sodipodi:end="3.1415927" />
    <path
       sodipodi:type="arc"
       style="fill:#241c1c"
       id="path3294"
       sodipodi:cx="42.5"
       sodipodi:cy="26.5"
       sodipodi:rx="7.5"
       sodipodi:ry="7.5"
       d="M 50,26.5 A 7.5,7.5 0 1 1 35.00421,26.248732 L 42.5,26.5 z"
       sodipodi:start="0"
       sodipodi:end="3.1751013" />
    <rect
       style="fill:#00ffcc"
       id="rect3348"
       width="13"
       height="2"
       x="16"
       y="24" />
    <rect
       style="fill:#00ffcc"
       id="rect3350"
       width="13"
       height="2"
       x="36"
       y="24" />
    <rect
       style="fill:#00ffcc"
       id="rect3352"
       width="13"
       height="3"
       x="16"
       y="26" />
    <rect
       style="fill:#00ffcc"
       id="rect3354"
       width="13"
       height="3"
       x="36"
       y="26" />
  </g>
</svg>
